<svg xmlns="http://www.w3.org/2000/svg" viewBox="0 0 1000 620" font-family="Segoe UI, Arial, sans-serif">
  <defs>
    <marker id="arrow" markerWidth="9" markerHeight="9" refX="7" refY="3" orient="auto" markerUnits="strokeWidth">
      <path d="M0,0 L7,3 L0,6 z" fill="#5b6b7b"/>
    </marker>
    <marker id="rarrow" markerWidth="9" markerHeight="9" refX="7" refY="3" orient="auto" markerUnits="strokeWidth">
      <path d="M0,0 L7,3 L0,6 z" fill="#c05364"/>
    </marker>
    <style>
      .lbl{font-size:12.5px;fill:#1f2d3d;} .lblb{font-size:12.5px;font-weight:700;fill:#1f2d3d;}
      .sub{font-size:10px;fill:#5b6b7b;} .title{font-size:16px;font-weight:700;fill:#1f2d3d;}
      .phase{font-size:11.5px;font-weight:700;} .flow{stroke:#5b6b7b;stroke-width:1.6;fill:none;marker-end:url(#arrow);}
      .retry{stroke:#c05364;stroke-width:1.5;fill:none;stroke-dasharray:5 3;marker-end:url(#rarrow);}
    </style>
  </defs>
  <rect width="1000" height="620" fill="#ffffff"/>
  <text x="30" y="28" class="title">Resilient multi-platform ingestion &amp; enrichment at scale</text>
  <text x="30" y="48" class="sub">Rate-limit-aware concurrency · capture-and-retry · land to S3/Athena · slice-parallel LLM enrichment · manifest quality check</text>

  <!-- input + secrets -->
  <rect x="30" y="76" width="150" height="52" rx="9" fill="#eef2f7" stroke="#7d8da0"/>
  <text x="105" y="97" text-anchor="middle" class="lblb">Roster (Excel)</text>
  <text x="105" y="114" text-anchor="middle" class="sub">accounts per platform</text>
  <rect x="30" y="140" width="150" height="48" rx="9" fill="#fff4e6" stroke="#d59433"/>
  <text x="105" y="160" text-anchor="middle" class="lbl">Secrets Manager</text>
  <text x="105" y="176" text-anchor="middle" class="sub">provider API keys</text>

  <!-- extractors -->
  <rect x="215" y="66" width="320" height="176" rx="12" fill="#f6fbf7" stroke="#3ba368" stroke-dasharray="6 4"/>
  <text x="231" y="88" class="phase" fill="#2f8556">PER-PLATFORM EXTRACTORS — tuned concurrency (thread pool)</text>
  <rect x="235" y="100" width="282" height="36" rx="8" fill="#eafaf1" stroke="#3ba368"/>
  <text x="245" y="123" class="lbl">Instagram</text><text x="507" y="123" text-anchor="end" class="sub">workers=2 · delay=2s</text>
  <rect x="235" y="144" width="282" height="36" rx="8" fill="#eafaf1" stroke="#3ba368"/>
  <text x="245" y="167" class="lbl">TikTok</text><text x="507" y="167" text-anchor="end" class="sub">workers=5 · delay=3s</text>
  <rect x="235" y="188" width="282" height="36" rx="8" fill="#eafaf1" stroke="#3ba368"/>
  <text x="245" y="211" class="lbl">X (Twitter)</text><text x="507" y="211" text-anchor="end" class="sub">workers=1 · delay=2s</text>
  <path class="flow" d="M180,100 L213,112"/>
  <path class="flow" d="M180,162 L213,170"/>
  <text x="197" y="235" text-anchor="middle" class="sub">3rd-party REST APIs →</text>

  <!-- failure capture + retry -->
  <rect x="565" y="80" width="180" height="62" rx="9" fill="#fdeef0" stroke="#c05364"/>
  <text x="655" y="101" text-anchor="middle" class="lblb">Failure capture</text>
  <text x="655" y="117" text-anchor="middle" class="sub">"missing" file + error</text>
  <text x="655" y="132" text-anchor="middle" class="sub">404 / 403 / 429 / timeout</text>
  <path class="flow" d="M535,120 L563,112"/>
  <path class="retry" d="M655,142 C655,205 540,208 400,214"/>
  <text x="545" y="230" text-anchor="middle" class="sub" fill="#c05364">retry only failures (idempotent)</text>

  <!-- quality report -->
  <rect x="775" y="80" width="195" height="62" rx="9" fill="#eef4ff" stroke="#4a7bd4"/>
  <text x="872" y="101" text-anchor="middle" class="lblb">Quality report</text>
  <text x="872" y="117" text-anchor="middle" class="sub">success/fail rate per run</text>
  <text x="872" y="132" text-anchor="middle" class="sub">&gt;90% good · &lt;70% API issue</text>
  <path class="flow" d="M745,111 L773,111"/>

  <!-- LAND -->
  <rect x="215" y="300" width="200" height="60" rx="9" fill="#f3f0fa" stroke="#8267c4"/>
  <text x="315" y="322" text-anchor="middle" class="lblb">Land — S3 parquet</text>
  <text x="315" y="339" text-anchor="middle" class="sub">registered in Athena</text>
  <text x="315" y="353" text-anchor="middle" class="sub">(comments extracted via Glue)</text>
  <path class="flow" d="M375,242 C350,265 330,282 320,298"/>

  <!-- ENRICH -->
  <rect x="440" y="290" width="230" height="80" rx="12" fill="#efeafd" stroke="#7a5fc0"/>
  <text x="456" y="311" class="phase" fill="#5f47a8">LLM ENRICHMENT (slice-parallel)</text>
  <text x="555" y="333" text-anchor="middle" class="lbl">sentiment + emotions</text>
  <text x="555" y="350" text-anchor="middle" class="sub">split into % slices · N parallel procs</text>
  <text x="555" y="363" text-anchor="middle" class="sub">emotions normalized in Athena</text>
  <path class="flow" d="M415,330 L438,330"/>

  <!-- MANIFEST CHECK -->
  <rect x="695" y="300" width="130" height="60" rx="9" fill="#eef4ff" stroke="#4a7bd4"/>
  <text x="760" y="322" text-anchor="middle" class="lblb">Manifest ✓</text>
  <text x="760" y="339" text-anchor="middle" class="sub">vs Athena</text>
  <text x="760" y="353" text-anchor="middle" class="sub">no gaps/dupes</text>
  <path class="flow" d="M670,330 L693,330"/>

  <!-- PUBLISH -->
  <rect x="845" y="300" width="125" height="60" rx="9" fill="#e9f6f8" stroke="#3a9bad"/>
  <text x="907" y="322" text-anchor="middle" class="lblb">Publish</text>
  <text x="907" y="339" text-anchor="middle" class="sub">CSV + Athena</text>
  <text x="907" y="353" text-anchor="middle" class="sub">consolidated</text>
  <path class="flow" d="M825,330 L843,330"/>

  <text x="500" y="440" text-anchor="middle" class="sub" fill="#5b6b7b">Key idea 1: the concurrency profile (workers · delay · timeout) is the rate-limit dial — trade speed for success rate per provider.</text>
  <text x="500" y="462" text-anchor="middle" class="sub" fill="#5b6b7b">Key idea 2: failures are captured and retried, not dropped; dead accounts (private/suspended/nonexistent) are classified, not retried forever.</text>
  <text x="500" y="484" text-anchor="middle" class="sub" fill="#5b6b7b">Key idea 3: expensive LLM enrichment scales via independent % slices; a manifest-vs-Athena check proves every record landed.</text>
</svg>
