<svg xmlns="http://www.w3.org/2000/svg" viewBox="0 0 1000 640" font-family="Segoe UI, Arial, sans-serif">
  <defs>
    <marker id="arrow" markerWidth="9" markerHeight="9" refX="7" refY="3" orient="auto" markerUnits="strokeWidth">
      <path d="M0,0 L7,3 L0,6 z" fill="#5b6b7b"/>
    </marker>
    <style>
      .lbl{font-size:12.5px;fill:#1f2d3d;} .lblb{font-size:12.5px;font-weight:700;fill:#1f2d3d;}
      .sub{font-size:10px;fill:#5b6b7b;} .title{font-size:16px;font-weight:700;fill:#1f2d3d;}
      .phase{font-size:11.5px;font-weight:700;} .flow{stroke:#5b6b7b;stroke-width:1.6;fill:none;marker-end:url(#arrow);}
      .dash{stroke:#9aa7b4;stroke-width:1.3;fill:none;stroke-dasharray:4 3;marker-end:url(#arrow);}
    </style>
  </defs>
  <rect width="1000" height="640" fill="#ffffff"/>
  <text x="30" y="30" class="title">Cloud platform (Terraform) — ECS Fargate + shared ALB + CloudFront</text>
  <text x="30" y="50" class="sub">One reusable blueprint · per-environment tfvars (sandbox / QA / prod) · proven at national scale</text>

  <!-- user -->
  <rect x="30" y="90" width="110" height="50" rx="9" fill="#e9f6f8" stroke="#3a9bad"/>
  <text x="85" y="120" text-anchor="middle" class="lblb">Users</text>

  <!-- edge -->
  <rect x="175" y="70" width="150" height="46" rx="9" fill="#fdeef0" stroke="#c05364"/>
  <text x="250" y="90" text-anchor="middle" class="lblb">WAF</text>
  <text x="250" y="106" text-anchor="middle" class="sub">edge protection</text>
  <rect x="175" y="128" width="150" height="52" rx="9" fill="#eef4ff" stroke="#4a7bd4"/>
  <text x="250" y="150" text-anchor="middle" class="lblb">CloudFront</text>
  <text x="250" y="167" text-anchor="middle" class="sub">CDN · TLS (ACM)</text>
  <path class="flow" d="M140,115 L173,110"/>
  <path class="flow" d="M140,120 L173,150"/>

  <!-- S3 static -->
  <rect x="360" y="70" width="170" height="52" rx="9" fill="#f3f0fa" stroke="#8267c4"/>
  <text x="445" y="91" text-anchor="middle" class="lblb">S3 — static SPA</text>
  <text x="445" y="108" text-anchor="middle" class="sub">private origin (OAC)</text>
  <path class="flow" d="M325,145 C340,120 350,105 358,98"/>
  <text x="352" y="135" class="sub">assets</text>

  <!-- ALB -->
  <rect x="360" y="140" width="170" height="56" rx="9" fill="#eef4ff" stroke="#4a7bd4"/>
  <text x="445" y="162" text-anchor="middle" class="lblb">Shared ALB</text>
  <text x="445" y="179" text-anchor="middle" class="sub">host/path rules → target groups</text>
  <path class="flow" d="M325,160 L358,165"/>
  <text x="342" y="200" class="sub">/api/*</text>

  <!-- VPC container -->
  <rect x="360" y="220" width="610" height="300" rx="12" fill="#f7f9fc" stroke="#b8c2cc" stroke-dasharray="6 4"/>
  <text x="376" y="243" class="phase" fill="#5b6b7b">VPC — private subnets (no public IPs) · persistence = the one swappable module (RDS ↔ DocumentDB)</text>

  <!-- ECS services -->
  <rect x="390" y="260" width="200" height="60" rx="9" fill="#eafaf1" stroke="#3ba368"/>
  <text x="490" y="283" text-anchor="middle" class="lblb">ECS Fargate — API</text>
  <text x="490" y="300" text-anchor="middle" class="sub">FastAPI · autoscaled tasks</text>
  <rect x="390" y="335" width="200" height="52" rx="9" fill="#eafaf1" stroke="#3ba368" stroke-dasharray="3 2"/>
  <text x="490" y="356" text-anchor="middle" class="lbl">ECS — additional service</text>
  <text x="490" y="372" text-anchor="middle" class="sub">SSR / worker (same ALB)</text>
  <path class="flow" d="M445,196 C445,220 470,245 486,258"/>
  <path class="dash" d="M460,196 C520,225 540,300 540,333"/>

  <!-- data stores -->
  <rect x="640" y="260" width="150" height="56" rx="9" fill="#eef2f7" stroke="#7d8da0"/>
  <text x="715" y="282" text-anchor="middle" class="lbl">RDS PostgreSQL</text>
  <text x="715" y="299" text-anchor="middle" class="sub">App A · transactional (ACID)</text>
  <rect x="810" y="260" width="140" height="56" rx="9" fill="#eef2f7" stroke="#7d8da0"/>
  <text x="880" y="282" text-anchor="middle" class="lbl">DocumentDB</text>
  <text x="880" y="299" text-anchor="middle" class="sub">App B · event scale</text>
  <path class="flow" d="M590,288 L638,288"/>
  <path class="dash" d="M590,278 C700,255 780,258 808,282"/>

  <rect x="640" y="335" width="150" height="52" rx="9" fill="#fff4e6" stroke="#d59433"/>
  <text x="715" y="356" text-anchor="middle" class="lbl">Secrets Manager</text>
  <text x="715" y="372" text-anchor="middle" class="sub">config injected</text>
  <rect x="810" y="335" width="140" height="52" rx="9" fill="#fff4e6" stroke="#d59433"/>
  <text x="880" y="356" text-anchor="middle" class="lbl">ECR</text>
  <text x="880" y="372" text-anchor="middle" class="sub">container images</text>
  <path class="flow" d="M590,300 C610,325 625,340 638,352"/>
  <path class="dash" d="M590,310 C700,360 800,360 810,358"/>

  <!-- external services -->
  <rect x="390" y="410" width="200" height="50" rx="9" fill="#eef4ff" stroke="#4a7bd4"/>
  <text x="490" y="431" text-anchor="middle" class="lbl">Keycloak (OIDC)</text>
  <text x="490" y="447" text-anchor="middle" class="sub">JWT · API validates via JWKS</text>
  <rect x="640" y="410" width="150" height="50" rx="9" fill="#eef2f7" stroke="#7d8da0"/>
  <text x="715" y="431" text-anchor="middle" class="lbl">S3 media</text>
  <text x="715" y="447" text-anchor="middle" class="sub">presigned URLs</text>
  <rect x="810" y="410" width="140" height="50" rx="9" fill="#eef2f7" stroke="#7d8da0"/>
  <text x="880" y="431" text-anchor="middle" class="lbl">SES</text>
  <text x="880" y="447" text-anchor="middle" class="sub">transactional email</text>
  <path class="dash" d="M490,387 L490,408"/>
  <path class="dash" d="M560,320 C620,390 690,400 710,408"/>
  <path class="dash" d="M560,315 C700,400 830,400 855,408"/>

  <!-- IaC footer -->
  <rect x="30" y="470" width="300" height="140" rx="12" fill="#f6f8fa" stroke="#b8c2cc"/>
  <text x="180" y="494" text-anchor="middle" class="phase" fill="#5b6b7b">TERRAFORM (IaC)</text>
  <text x="180" y="518" text-anchor="middle" class="sub">modules: vpc · ecr · secrets · frontend</text>
  <text x="180" y="536" text-anchor="middle" class="sub">public_alb · ecs_backend · ecs_additional</text>
  <text x="180" y="554" text-anchor="middle" class="sub">rds · documentdb · dns · waf · bastion_ssm</text>
  <text x="180" y="578" text-anchor="middle" class="sub">names = project_name + environment</text>
  <text x="180" y="596" text-anchor="middle" class="sub">remote state in S3 · sandbox / QA / prod</text>
</svg>
